<?xml version="1.0" encoding="UTF-8"?>
<svg version="1.1" xmlns="http://www.w3.org/2000/svg" width="512" height="512">
<path d="M0 0 C4.96519463 2.30526893 7.39089701 5.24073974 10 10 C10.51769038 12.98030847 10.46847054 15.88103031 10.390625 18.8984375 C10.38496521 19.73339752 10.37930542 20.56835754 10.37347412 21.42861938 C10.35120223 24.07801266 10.30102523 26.72602016 10.25 29.375 C10.22992302 31.17836579 10.21167435 32.98175292 10.1953125 34.78515625 C10.15136786 39.19063269 10.08240601 43.59508194 10 48 C11.25699707 47.98702881 12.51399414 47.97405762 13.80908203 47.96069336 C22.94830093 47.86638402 30.61542705 51.89903003 37.74609375 57.31640625 C41.95885596 60.4632009 44.81657355 62.41250912 50.1875 62.25 C51.47720703 62.22679688 51.47720703 62.22679688 52.79296875 62.203125 C55.04071429 62.13104242 55.04071429 62.13104242 57 61 C57.00364563 60.37439178 57.00729126 59.74878357 57.01104736 59.10421753 C57.05291474 52.5824492 57.12229045 46.06138184 57.20751953 39.54003906 C57.23571451 37.10749325 57.25693632 34.67485608 57.27099609 32.2421875 C57.29244508 28.74171218 57.33910843 25.24233369 57.390625 21.7421875 C57.39185364 20.65759247 57.39308228 19.57299744 57.39434814 18.45553589 C57.51280994 12.3241397 57.90592479 8.66694373 62 4 C65.81930172 0.37166337 68.88279006 -0.31000458 74 -0.5 C79.11720994 -0.31000458 82.18069828 0.37166337 86 4 C89.51437654 8.47848183 90.49817688 11.35254185 90.48101807 17.02352905 C90.48443577 17.70652529 90.48785347 18.38952153 90.49137473 19.09321463 C90.49793418 21.36905559 90.47601171 23.64370234 90.45410156 25.91943359 C90.45297266 27.5557655 90.45360779 29.19209944 90.45587158 30.82843018 C90.45701798 35.26199601 90.43352081 39.69512787 90.40557575 44.12859297 C90.38054968 48.76503765 90.37821915 53.40149258 90.37347412 58.03799438 C90.36104789 66.81396708 90.32823104 75.58974017 90.28807616 84.36562502 C90.24334749 94.3582907 90.22136865 104.35096597 90.20129442 114.34370685 C90.15949812 134.89591592 90.08915289 155.44794538 90 176 C90.62749649 175.98068924 91.25499298 175.96137848 91.90150452 175.94148254 C94.77924666 175.86423517 97.65676984 175.81667674 100.53515625 175.76953125 C101.52213501 175.73863403 102.50911377 175.70773682 103.52600098 175.67590332 C111.61431059 175.57667058 116.76974053 177.3481362 123.1953125 182.3828125 C129.24709704 186.97410333 135.4728989 191.30341981 141.72756958 195.61221313 C143.77570609 197.03690599 145.80002934 198.49117486 147.82397461 199.94995117 C149.11755918 200.85445171 150.41188328 201.75789575 151.70703125 202.66015625 C152.27755219 203.0826767 152.84807312 203.50519714 153.43588257 203.94052124 C157.18858457 206.50303258 160.19006501 207.28692945 164.74003601 207.61766052 C165.72631831 207.69348578 166.71260061 207.76931105 167.72877026 207.84743404 C168.47827607 207.89778081 169.22778189 207.94812757 170 208 C169.99631283 207.1500112 169.99262566 206.30002239 169.98882675 205.42427635 C169.9004919 184.74280169 169.83429824 164.06135954 169.79275131 143.37973595 C169.77212552 133.37825114 169.74400455 123.37689226 169.69824219 113.37548828 C169.658375 104.65832518 169.63256731 95.94125327 169.62364602 87.22400153 C169.61843108 82.60818736 169.60617369 77.99263409 169.57707977 73.37690353 C169.54991254 69.03160049 169.54155763 64.68666561 169.54756927 60.34128571 C169.54646962 58.74735386 169.53852336 57.1534096 169.5231781 55.55955124 C169.50322868 53.38042698 169.50807747 51.2026864 169.51898193 49.02352905 C169.51529476 47.80491873 169.51160759 46.5863084 169.50780869 45.33077049 C170.26678447 40.19460887 172.8051163 37.13513952 176.5 33.625 C181.66500009 31.22696425 186.4002288 31.24618465 192 32 C196.96763371 34.30640137 199.37448784 37.24924647 202 42 C202.53745812 44.86999164 202.50762787 47.66288529 202.45410156 50.57568359 C202.45468567 51.41536682 202.45526978 52.25505005 202.45587158 53.12017822 C202.45309739 55.8800268 202.4220375 58.63877893 202.390625 61.3984375 C202.38316023 63.31799734 202.37746841 65.23756482 202.37347412 67.15713501 C202.35823638 72.19774592 202.31897054 77.23789232 202.2746582 82.27832031 C202.23366539 87.42636838 202.21545454 92.57449185 202.1953125 97.72265625 C202.15247454 107.81530772 202.08424569 117.90761516 202 128 C203.25699707 127.98702881 204.51399414 127.97405762 205.80908203 127.96069336 C214.94830093 127.86638402 222.61542705 131.89903003 229.74609375 137.31640625 C233.95885596 140.4632009 236.81657355 142.41250912 242.1875 142.25 C243.04730469 142.23453125 243.90710938 142.2190625 244.79296875 142.203125 C247.04071429 142.13104242 247.04071429 142.13104242 249 141 C249.00364563 139.77304413 249.00729126 138.54608826 249.01104736 137.2819519 C249.04799501 125.71677211 249.10576546 114.15185864 249.18390274 102.58688164 C249.223405 96.64124322 249.25558016 90.69575353 249.27099609 84.75 C249.28614432 79.01156381 249.3205579 73.27353641 249.36830902 67.53528214 C249.38314163 65.34648314 249.39104209 63.15762579 249.39188385 60.9687767 C249.39424952 57.90175589 249.42129813 54.83586843 249.45410156 51.76904297 C249.4490712 50.86489151 249.44404083 49.96074005 249.43885803 49.02919006 C249.52989497 43.52456886 250.34403476 40.37219543 254 36 C257.81930172 32.37166337 260.88279006 31.68999542 266 31.5 C271.11720994 31.68999542 274.18069828 32.37166337 278 36 C281.51437654 40.47848183 282.49817688 43.35254185 282.48101807 49.02352905 C282.48443577 49.70652529 282.48785347 50.38952153 282.49137473 51.09321463 C282.49793418 53.36905559 282.47601171 55.64370234 282.45410156 57.91943359 C282.45297266 59.5557655 282.45360779 61.19209944 282.45587158 62.82843018 C282.45701798 67.26199601 282.43352081 71.69512787 282.40557575 76.12859297 C282.38054968 80.76503765 282.37821915 85.40149258 282.37347412 90.03799438 C282.36104789 98.81396708 282.32823104 107.58974017 282.28807616 116.36562502 C282.24334749 126.3582907 282.22136865 136.35096597 282.20129442 146.34370685 C282.15949812 166.89591592 282.08915289 187.44794538 282 208 C282.58358276 207.99111755 283.16716553 207.98223511 283.76843262 207.9730835 C289.86830809 207.88426475 295.96799844 207.82412307 302.06835938 207.78027344 C304.34187284 207.76021683 306.6153351 207.73296462 308.88867188 207.69824219 C312.16549349 207.64946288 315.44163025 207.62697103 318.71875 207.609375 C320.23172668 207.57840729 320.23172668 207.57840729 321.77526855 207.54681396 C331.41084929 207.54378276 337.78660786 210.97041631 344.765625 217.4921875 C359.82388451 234.39324101 362.42449844 258.07201258 362.3125 279.75 C362.31034485 280.50045593 362.3081897 281.25091187 362.30596924 282.02410889 C362.2063827 303.62057159 359.27340186 326.85427866 343.80078125 343.34375 C337.41452736 349.32883005 331.81289579 352.44783569 322.95574951 352.20358276 C322.28182041 352.18976818 321.60789132 352.1759536 320.91354012 352.1617204 C318.67191529 352.11276739 316.4314882 352.04215475 314.19042969 351.97216797 C312.57449842 351.93366526 310.95852362 351.89695461 309.34251404 351.8618927 C305.86341127 351.78559608 302.38455537 351.70252159 298.90569305 351.6159935 C293.35728321 351.48406041 287.80888014 351.40432516 282.25933838 351.33816528 C281.31760765 351.32685227 280.37587692 351.31553926 279.40560889 351.30388343 C275.51804636 351.25803091 271.63046709 351.21370546 267.74288511 351.16953635 C256.79830956 351.04253091 245.85927557 350.86824453 234.91845703 350.54980469 C223.39867169 350.2221583 211.88408224 350.03223352 200.359375 350.0546875 C198.96533793 350.05728341 198.96533793 350.05728341 197.5431385 350.05993176 C165.27739874 350.22001427 142.7515045 355.71128556 119.0088501 379.14456177 C118.51851414 379.64889299 118.02817818 380.15322422 117.52298355 380.67283821 C113.64560353 384.05167353 110.38130533 384.25328927 105.30877686 384.26742554 C104.63721754 384.27195665 103.96565823 384.27648776 103.27374864 384.28115618 C101.02455144 384.29381137 98.77559604 384.29217911 96.52636719 384.29052734 C94.91315906 384.29651201 93.29995381 384.30331742 91.68675232 384.31088257 C87.30434509 384.32855872 82.92201596 384.3332387 78.53957653 384.33451414 C75.80036545 384.33593569 73.06117423 384.34020541 70.32196808 384.34550858 C60.76199584 384.36401605 51.2020794 384.37217852 41.64208984 384.37060547 C32.73751257 384.36940472 23.83317795 384.39049202 14.92866206 384.4220928 C7.27925121 384.44826977 -0.37008049 384.45897213 -8.01953578 384.45769465 C-12.58614169 384.45718532 -17.15253211 384.46285211 -21.71909332 384.48405075 C-26.01688865 384.50345645 -30.31426349 384.5035418 -34.6120739 384.48901749 C-36.18580428 384.48693098 -37.75956112 384.49162087 -39.33324623 384.5037384 C-48.75725878 384.57157928 -55.7177511 384.31609397 -63.28515625 378.1328125 C-82.63077018 356.27864643 -86.07472315 321.83893394 -86.203125 293.8671875 C-86.21013931 292.839991 -86.21715363 291.81279449 -86.22438049 290.75447083 C-86.24177704 287.46126876 -86.24823161 284.16824631 -86.25 280.875 C-86.25067474 279.75195465 -86.25134949 278.6289093 -86.25204468 277.47183228 C-86.23674981 261.48097654 -86.10153941 245.74559075 -83 230 C-82.72663818 228.60612061 -82.72663818 228.60612061 -82.44775391 227.18408203 C-78.81573649 209.36383283 -74.04371821 188.79018695 -58 178 C-53.81561614 175.93393399 -50.36922347 175.76650845 -45.73046875 175.8046875 C-45.04946609 175.8075174 -44.36846344 175.81034729 -43.66682434 175.81326294 C-41.50686545 175.82439475 -39.34733206 175.84948543 -37.1875 175.875 C-35.71680289 175.88503889 -34.24609924 175.89416315 -32.77539062 175.90234375 C-29.18345714 175.92431087 -25.59177015 175.9587918 -22 176 C-22.00368717 175.1500112 -22.00737434 174.30002239 -22.01117325 173.42427635 C-22.0995081 152.74280169 -22.16570176 132.06135954 -22.20724869 111.37973595 C-22.22787448 101.37825114 -22.25599545 91.37689226 -22.30175781 81.37548828 C-22.341625 72.65832518 -22.36743269 63.94125327 -22.37635398 55.22400153 C-22.38156892 50.60818736 -22.39382631 45.99263409 -22.42292023 41.37690353 C-22.45008746 37.03160049 -22.45844237 32.68666561 -22.45243073 28.34128571 C-22.45353038 26.74735386 -22.46147664 25.1534096 -22.4768219 23.55955124 C-22.49677132 21.38042698 -22.49192253 19.2026864 -22.48101807 17.02352905 C-22.48470524 15.80491873 -22.48839241 14.5863084 -22.49219131 13.33077049 C-21.73321553 8.19460887 -19.1948837 5.13513952 -15.5 1.625 C-10.33499991 -0.77303575 -5.5997712 -0.75381535 0 0 Z M10 81 C9.99780016 81.89618388 9.99780016 81.89618388 9.99555588 82.81047249 C9.95847899 97.35839583 9.89945264 111.90611609 9.81609726 126.45384407 C9.77631425 133.48908996 9.74391811 140.52422412 9.72900391 147.55957031 C9.71459151 154.34836505 9.67947194 161.13680095 9.63169098 167.92544174 C9.61684723 170.51616278 9.60895728 173.10693326 9.60811615 175.69769669 C9.60575389 179.32504501 9.57873136 182.95143061 9.54589844 186.57861328 C9.5509288 187.65107803 9.55595917 188.72354279 9.56114197 189.82850647 C9.4765505 195.86425938 9.03247565 199.40601452 5 204 C1.02417922 207.2204835 -2.85643525 207.5215074 -7.8125 207.6875 C-8.50537109 207.72166016 -9.19824219 207.75582031 -9.91210938 207.79101562 C-11.60752849 207.87286344 -13.30373458 207.93812365 -15 208 C-14.79636841 208.80328735 -14.79636841 208.80328735 -14.58862305 209.62280273 C-3.98387986 252.10011728 -2.6613286 298.91959349 -12.61328125 341.671875 C-12.84358032 342.6726709 -13.07387939 343.6734668 -13.31115723 344.70458984 C-13.87132078 347.13705103 -14.43429941 349.56882172 -15 352 C-0.62180749 352.68857157 13.75412012 353.19399703 28.14564228 353.50255299 C34.83511635 353.64990035 41.51203183 353.85287611 48.19555664 354.18774414 C87.41789951 356.10206451 112.43976824 350.70342984 142.29490948 324.32926464 C146.10121357 321.36192339 148.94111384 320.7476113 153.75799561 320.7215271 C154.93306168 320.71036362 156.10812775 320.69920013 157.31880188 320.68769836 C158.60417343 320.68553818 159.88954498 320.68337799 161.21386719 320.68115234 C162.58390392 320.67185212 163.95393499 320.6616833 165.32395935 320.65071106 C169.04053409 320.62340749 172.75707093 320.60826063 176.4737196 320.59528303 C180.3588464 320.57965404 184.24389577 320.55286308 188.12896729 320.5272522 C195.48470136 320.48046029 202.84045 320.44371819 210.19625688 320.41057932 C218.57108697 320.37236084 226.9458393 320.32294997 235.32060385 320.27259517 C252.54701298 320.1692692 269.77346712 320.08001097 287 320 C286.67977961 318.39533381 286.35936342 316.7907067 286.03886414 315.18609619 C285.86045329 314.2925153 285.68204245 313.3989344 285.49822521 312.4782753 C285.13231437 310.65815904 284.75770221 308.83978648 284.37817383 307.02246094 C282.82515093 298.87242256 282.66100819 290.85943085 282.68432617 282.59277344 C282.68747684 280.26709623 282.66397063 277.94270781 282.63867188 275.6171875 C282.5965339 265.3756281 283.84104509 256.00937756 286 246 C286.34519669 244.00201342 286.68279672 242.00262158 287 240 C285.82026611 239.98598145 285.82026611 239.98598145 284.61669922 239.97167969 C281.03550762 239.91782718 277.45560117 239.83420637 273.875 239.75 C272.6375 239.73582031 271.4 239.72164062 270.125 239.70703125 C258.5006233 239.39454801 258.5006233 239.39454801 254 235 C251.44589957 231.37514144 250.61936027 228.89336669 250.56762695 224.4753418 C250.54783279 223.39459885 250.52803864 222.3138559 250.50764465 221.20036316 C250.49805977 219.46729668 250.49805977 219.46729668 250.48828125 217.69921875 C250.46135445 215.91195122 250.46135445 215.91195122 250.43388367 214.08857727 C250.37976309 210.28825402 250.34587824 206.48805652 250.3125 202.6875 C250.2793286 200.10870646 250.24483911 197.52992951 250.20898438 194.95117188 C250.12403537 188.63422733 250.05569264 182.31726656 250 176 C249.31623795 176.00344421 248.63247589 176.00688843 247.92799377 176.01043701 C247.02951218 176.01311584 246.13103058 176.01579468 245.20532227 176.01855469 C244.31531021 176.0219989 243.42529816 176.02544312 242.50831604 176.0289917 C229.71268211 175.88109679 220.25501924 171.12264955 210 164 C206.30163489 161.47209416 206.30163489 161.47209416 202 161 C201.99635437 161.85111359 201.99270874 162.70222717 201.98895264 163.57913208 C201.95103628 171.61250994 201.89414231 179.64548333 201.81609726 187.67857552 C201.7766411 191.80819377 201.74444369 195.93759939 201.72900391 200.06738281 C201.71382475 204.05526299 201.67935774 208.04255854 201.63169098 212.03017807 C201.61689 213.54910059 201.60895972 215.06810659 201.60811615 216.58710098 C201.60574068 218.72031734 201.5786192 220.85192553 201.54589844 222.98486328 C201.53701599 224.1973172 201.52813354 225.40977112 201.51898193 226.65896606 C200.76473748 231.51454223 198.55536457 234.67461563 194.84692383 237.8347168 C190.72674983 239.52115797 186.86687407 239.5653591 182.44921875 239.64453125 C181.51761429 239.66400314 180.58600983 239.68347504 179.62617493 239.70353699 C177.65186776 239.73621672 175.67739688 239.76003929 173.70288086 239.77563477 C170.73298166 239.81194395 167.7707788 239.91775417 164.80273438 240.02539062 C151.03078777 240.2971383 142.70694634 237.54212736 132 229 C130.79934959 228.07327564 129.59729109 227.14837258 128.39379883 226.2253418 C126.60648372 224.84698836 124.8200091 223.46763873 123.03665161 222.08416748 C105.87010736 208.85764393 92.82766347 205.10167578 71.21850586 207.21264648 C67.05356074 206.93746882 65.17581946 205.66262362 62 203 C58.22566492 198.35799122 58.55887293 193.77745381 58.56762695 188.0690918 C58.55233948 186.5757003 58.55233948 186.5757003 58.53674316 185.05213928 C58.50659616 181.76777532 58.49734442 178.48370294 58.48828125 175.19921875 C58.47143587 172.91948984 58.45328582 170.63977023 58.43388367 168.36006165 C58.38636248 162.36452133 58.35656664 156.3690187 58.33044434 150.37335205 C58.30064966 144.25338293 58.25411552 138.13354371 58.20898438 132.01367188 C58.12292703 120.0091825 58.0555924 108.00466641 58 96 C57.31623795 96.00344421 56.63247589 96.00688843 55.92799377 96.01043701 C55.02951218 96.01311584 54.13103058 96.01579468 53.20532227 96.01855469 C52.31531021 96.0219989 51.42529816 96.02544312 50.50831604 96.0289917 C37.71268211 95.88109679 28.25501924 91.12264955 18 84 C14.30163489 81.47209416 14.30163489 81.47209416 10 81 Z M-47 220 C-47.63551489 222.8104566 -48.2582821 225.62290449 -48.875 228.4375 C-49.04902344 229.20126953 -49.22304687 229.96503906 -49.40234375 230.75195312 C-52.6975899 245.94669925 -53.34870473 261.02679786 -53.31567383 276.52685547 C-53.3125253 279.6003003 -53.33603225 282.67276768 -53.36132812 285.74609375 C-53.41921253 304.06545691 -51.79924993 322.26660133 -47 340 C-46.34 340 -45.68 340 -45 340 C-44.36448511 337.1895434 -43.7417179 334.37709551 -43.125 331.5625 C-42.95097656 330.79873047 -42.77695313 330.03496094 -42.59765625 329.24804688 C-39.3024101 314.05330075 -38.65129527 298.97320214 -38.68432617 283.47314453 C-38.6874747 280.3996997 -38.66396775 277.32723232 -38.63867188 274.25390625 C-38.58078747 255.93454309 -40.20075007 237.73339867 -45 220 C-45.66 220 -46.32 220 -47 220 Z M321 244 C320.36509824 245.62115692 319.74274208 247.24722707 319.125 248.875 C318.77695312 249.77992188 318.42890625 250.68484375 318.0703125 251.6171875 C315.12185768 260.93602647 314.61398454 269.87814977 314.625 279.625 C314.62421448 280.28619843 314.62342896 280.94739685 314.62261963 281.62863159 C314.64033835 294.07866877 316.23730878 304.4794361 321 316 C321.66 316 322.32 316 323 316 C323.63490176 314.37884308 324.25725792 312.75277293 324.875 311.125 C325.22304688 310.22007812 325.57109375 309.31515625 325.9296875 308.3828125 C328.87814232 299.06397353 329.38601546 290.12185023 329.375 280.375 C329.37578552 279.71380157 329.37657104 279.05260315 329.37738037 278.37136841 C329.35966165 265.92133123 327.76269122 255.5205639 323 244 C322.34 244 321.68 244 321 244 Z " fill="#000000" transform="translate(118,64)"/>
<path d="M0 0 C1.68394568 1.16372235 3.34666161 2.35937283 4.9765625 3.59765625 C10.8439342 7.98038971 14.93232142 9.32384248 22.23046875 8.28125 C25.31003172 6.75773077 25.31003172 6.75773077 28.23046875 4.28125 C41.48608886 -4.99136184 53.1868201 -7.3937802 69.23046875 -5.71875 C74.22768341 -4.62180044 78.60702974 -2.88680332 83.23046875 -0.71875 C83.91189941 -0.41340332 84.59333008 -0.10805664 85.29541016 0.20654297 C87.47377749 1.18585392 89.63538817 2.19451357 91.79296875 3.21875 C92.46038086 3.53005859 93.12779297 3.84136719 93.81542969 4.16210938 C99.02032131 6.76323079 102.57587853 9.97206955 105.23046875 15.28125 C105.82567619 20.88470293 106.35201049 26.49474855 103.10546875 31.34375 C99.98218298 34.91073375 96.87879815 36.95997725 92.07104492 37.54321289 C84.08006997 37.82587259 78.68663457 35.09984878 71.73046875 31.48046875 C65.83074069 28.57669635 60.82599513 27.31562549 54.23046875 28.28125 C51.15090578 29.80476923 51.15090578 29.80476923 48.23046875 32.28125 C36.04611559 40.80448592 24.09290401 44.74579199 9.10546875 42.59375 C-0.60738579 40.66128349 -7.66211315 37.00411699 -15.51953125 30.98828125 C-20.06296107 27.54126939 -24.20828774 27.64858044 -29.76953125 28.28125 C-33.27781276 29.45609118 -36.49155583 31.07567842 -39.76953125 32.78125 C-46.45595843 36.26028164 -52.11951506 38.53471688 -59.76953125 37.28125 C-65.00164221 35.00047673 -68.24222514 32.50233149 -70.76953125 27.28125 C-71.59418855 21.76124662 -71.51778181 16.8331771 -69.08203125 11.78125 C-64.04716895 6.33815562 -58.58654424 3.59564077 -51.89453125 0.65625 C-51.02183594 0.26179688 -50.14914063 -0.13265625 -49.25 -0.5390625 C-33.75102726 -7.43785338 -15.01343881 -9.31722578 0 0 Z " fill="#000000" transform="translate(246.76953125,325.71875)"/>
</svg>
